HIERARCHY
ROOT Hips
{
	OFFSET 0.00000 0.00000 0.00000
	CHANNELS 6 Xposition Yposition Zposition Zrotation Yrotation Xrotation 
	JOINT LHipJoint
	{
		OFFSET 0 0 0
		CHANNELS 3 Zrotation Yrotation Xrotation
		JOINT LeftUpLeg
		{
			OFFSET 1.55766 -1.60504 1.11378
			CHANNELS 3 Zrotation Yrotation Xrotation
			JOINT LeftLeg
			{
				OFFSET 2.29047 -6.29302 0.00000
				CHANNELS 3 Zrotation Yrotation Xrotation
				JOINT LeftFoot
				{
					OFFSET 2.52265 -6.93093 0.00000
					CHANNELS 3 Zrotation Yrotation Xrotation
					JOINT LeftToeBase
					{
						OFFSET 0.17633 -0.48446 2.02656
						CHANNELS 3 Zrotation Yrotation Xrotation
						End Site
						{
							OFFSET 0.00000 -0.00000 1.04989
						}
					}
				}
			}
		}
	}
	JOINT RHipJoint
	{
		OFFSET 0 0 0
		CHANNELS 3 Zrotation Yrotation Xrotation
		JOINT RightUpLeg
		{
			OFFSET -1.48599 -1.60504 1.11378
			CHANNELS 3 Zrotation Yrotation Xrotation
			JOINT RightLeg
			{
				OFFSET -2.27280 -6.24448 0.00000
				CHANNELS 3 Zrotation Yrotation Xrotation
				JOINT RightFoot
				{
					OFFSET -2.50834 -6.89161 0.00000
					CHANNELS 3 Zrotation Yrotation Xrotation
					JOINT RightToeBase
					{
						OFFSET -0.26967 -0.74090 2.08741
						CHANNELS 3 Zrotation Yrotation Xrotation
						End Site
						{
							OFFSET -0.00000 -0.00000 1.10614
						}
					}
				}
			}
		}
	}
	JOINT LowerBack
	{
		OFFSET 0 0 0
		CHANNELS 3 Zrotation Yrotation Xrotation
		JOINT Spine
		{
			OFFSET 0.06481 2.02437 -0.08472
			CHANNELS 3 Zrotation Yrotation Xrotation
			JOINT Spine1
			{
				OFFSET 0.00015 1.96711 0.18069
				CHANNELS 3 Zrotation Yrotation Xrotation
				JOINT Neck
				{
					OFFSET 0 0 0
					CHANNELS 3 Zrotation Yrotation Xrotation
					JOINT Neck1
					{
						OFFSET -0.29961 1.68293 -0.13041
						CHANNELS 3 Zrotation Yrotation Xrotation
						JOINT Head
						{
							OFFSET 0.59697 1.61501 -0.14669
							CHANNELS 3 Zrotation Yrotation Xrotation
							End Site
							{
								OFFSET 0.22973 1.74906 -0.10148
							}
						}
					}
				}
				JOINT LeftShoulder
				{
					OFFSET 0 0 0
					CHANNELS 3 Zrotation Yrotation Xrotation
					JOINT LeftArm
					{
						OFFSET 3.37968 1.02893 0.31147
						CHANNELS 3 Zrotation Yrotation Xrotation
						JOINT LeftForeArm
						{
							OFFSET 5.19807 -0.00000 -0.00000
							CHANNELS 3 Zrotation Yrotation Xrotation
							JOINT LeftHand
							{
								OFFSET 3.09370 -0.00000 -0.00000
								CHANNELS 3 Zrotation Yrotation Xrotation
								JOINT LeftFingerBase
								{
									OFFSET 0 0 0
									CHANNELS 3 Zrotation Yrotation Xrotation
									JOINT LeftHandIndex1
									{
										OFFSET 0.67263 -0.00000 -0.00000
										CHANNELS 3 Zrotation Yrotation Xrotation
										End Site
										{
											OFFSET 0.54229 -0.00000 -0.00000
										}
									}
								}
								JOINT LThumb
								{
									OFFSET 0 0 0
									CHANNELS 3 Zrotation Yrotation Xrotation
									End Site
									{
										OFFSET 0.55057 -0.00000 0.55057
									}
								}
							}
						}
					}
				}
				JOINT RightShoulder
				{
					OFFSET 0 0 0
					CHANNELS 3 Zrotation Yrotation Xrotation
					JOINT RightArm
					{
						OFFSET -3.38254 0.96355 -0.16120
						CHANNELS 3 Zrotation Yrotation Xrotation
						JOINT RightForeArm
						{
							OFFSET -5.45222 -0.00000 -0.00000
							CHANNELS 3 Zrotation Yrotation Xrotation
							JOINT RightHand
							{
								OFFSET -3.01284 -0.00000 -0.00000
								CHANNELS 3 Zrotation Yrotation Xrotation
								JOINT RightFingerBase
								{
									OFFSET 0 0 0
									CHANNELS 3 Zrotation Yrotation Xrotation
									JOINT RightHandIndex1
									{
										OFFSET -0.62230 -0.00000 -0.00000
										CHANNELS 3 Zrotation Yrotation Xrotation
										End Site
										{
											OFFSET -0.50171 -0.00000 -0.00000
										}
									}
								}
								JOINT RThumb
								{
									OFFSET 0 0 0
									CHANNELS 3 Zrotation Yrotation Xrotation
									End Site
									{
										OFFSET -0.50937 -0.00000 0.50937
									}
								}
							}
						}
					}
				}
			}
		}
	}
}
MOTION
Frames: 13
Frame Time: .0083333
6.7009 15.8221 38.0664 0 0 0 0 0 0 -21 0 0 0 0 0 0 0 0 0 0 0 0 0 0 21 0 0 0 0 0 0 0 0 0 0 0 0 0 0 0 0 0 0 0 0 0 0 -16 0 0 21 0 0 11 0 0 0 -8 0 0 0 0 0 0 0 0 0 0 0 0 0 0 0 0 0 0 0 0 8 0 0 0 0 0 0 0 0 0 0 0 0 0 0 0 0 0
6.7009 15.8221 38.0664 -179.7570 -23.5813 -165.7890 0.0000 0.0000 0.0000 -9.7867 -4.0965 -24.1998 6.8154 15.1744 48.1725 -0.4712 12.5951 -0.7517 3.4143 -11.3373 -33.4259 0.0000 0.0000 0.0000 22.8622 10.8364 -16.6226 -1.7592 -8.3453 23.7680 0.3803 21.8984 -12.3780 -0.0276 1.0715 -2.9456 6.6253 3.5197 -7.9287 -1.8604 3.7897 -6.7608 -5.3993 1.4000 -2.0462 -32.6813 -3.7758 8.4940 42.5624 -10.6937 -3.9096 24.1027 -7.4990 2.1917 0.0000 -0.0000 0.0000 -85.3104 21.2357 30.8202 38.3068 -47.0341 -17.1897 -0.0000 0.0000 -29.7616 11.5056 -7.0752 -1.4362 -7.1250 0.0000 -0.0000 -11.1621 22.7952 6.0783 0.0000 -0.0000 0.0000 84.9988 -27.2403 41.8123 -32.3370 42.8142 -12.9693 0.0000 0.0000 4.0081 -10.3041 -5.6382 1.0233 7.1250 -0.0000 -0.0000 13.6152 -35.4296 3.2779
6.6936 15.8276 38.0438 -179.8140 -23.0863 -165.8250 0.0000 0.0000 0.0000 -9.7999 -4.3915 -24.4223 7.0403 15.3657 49.0266 -0.4688 12.6232 -0.5560 3.4334 -11.3656 -33.5229 0.0000 0.0000 0.0000 22.7871 10.9587 -16.3061 -1.7263 -8.2710 23.5403 0.3631 22.1855 -12.7734 -0.0541 1.5005 -4.1272 6.6975 3.6174 -7.9593 -1.9959 3.9049 -6.8168 -5.5733 1.4463 -2.0595 -32.6007 -3.7317 9.2650 42.6150 -10.7062 -4.5785 24.1728 -7.5821 1.8572 0.0000 0.0000 0.0000 -85.0987 22.0275 30.7661 40.5538 -48.3946 -18.8523 -0.0000 0.0000 -30.4480 11.3600 -7.4549 -1.4932 -7.1250 0.0000 -0.0000 -11.2433 22.4197 6.2228 0.0000 0.0000 0.0000 84.7362 -28.1912 42.3066 -33.4083 43.6415 -13.7030 0.0000 0.0000 3.7469 -10.1726 -5.1327 0.9197 7.1250 -0.0000 -0.0000 13.6297 -34.9241 3.4539
6.6856 15.8333 38.0279 -179.8700 -22.7059 -165.7970 0.0000 0.0000 0.0000 -9.8051 -4.7973 -24.8444 7.2914 15.5724 49.9678 -0.4517 12.4721 -0.3104 3.5404 -11.5224 -34.0626 0.0000 0.0000 0.0000 22.7029 10.8628 -16.2046 -1.7033 -8.2187 23.3803 0.5075 22.6234 -11.9434 -0.0132 0.7425 -2.0406 6.8130 3.5347 -7.9302 -1.9779 3.7974 -6.7258 -5.6272 1.3978 -1.9906 -32.8669 -3.8830 9.2224 42.6497 -10.8466 -5.0370 24.2480 -7.6526 1.8504 -0.0000 -0.0000 0.0000 -85.3342 22.4517 30.2731 42.8794 -49.6863 -20.6088 -0.0000 0.0000 -31.2208 11.2589 -7.7593 -1.5396 -7.1250 0.0000 -0.0000 -11.2973 22.1187 6.3331 -0.0000 -0.0000 0.0000 84.0153 -28.6256 43.1600 -34.3530 44.3446 -14.3593 0.0000 0.0000 3.5245 -10.1076 -5.0620 0.9011 7.1250 -0.0000 -0.0000 13.6697 -34.8512 3.4894
6.6825 15.8335 38.0078 -179.7800 -22.2224 -165.9130 0.0000 0.0000 0.0000 -9.6313 -5.1117 -25.1290 7.5500 15.7781 50.9251 -0.4395 12.7716 0.8904 2.9841 -10.6693 -31.1724 0.0000 0.0000 0.0000 22.8006 11.1159 -15.8629 -1.6817 -8.1691 23.2288 0.5194 22.6858 -11.9001 -0.0129 0.7345 -2.0185 6.9364 3.5189 -7.8381 -1.9757 3.7751 -6.7358 -5.7012 1.3790 -2.0490 -32.9121 -3.8839 9.6140 42.6938 -10.8696 -5.5456 24.3283 -7.7070 1.6567 0.0000 0.0000 0.0000 -85.4078 23.0014 29.8345 45.0086 -50.7727 -22.2454 -0.0000 0.0000 -32.2317 11.4150 -8.0162 -1.6128 -7.1250 0.0000 -0.0000 -11.1695 21.8567 6.3267 0.0000 0.0000 0.0000 83.5454 -29.1743 43.7472 -35.0217 44.8276 -14.8287 0.0000 0.0000 3.3162 -10.0277 -5.1348 0.9067 7.1250 -0.0000 -0.0000 13.7475 -34.9191 3.4869
6.6770 15.8334 37.9895 -179.7360 -21.7497 -165.9970 0.0000 0.0000 0.0000 -9.5213 -5.4099 -25.4628 7.8196 15.9850 51.9104 -0.4158 12.7386 1.5204 2.7711 -10.3149 -30.0025 0.0000 0.0000 0.0000 22.8348 11.2866 -15.5922 -1.6663 -8.1334 23.1199 0.5538 22.8537 -11.7628 -0.0089 0.6088 -1.6730 7.0661 3.5060 -7.7547 -1.9890 3.7572 -6.7311 -5.7939 1.3639 -2.0855 -32.9783 -3.9125 9.9605 42.7365 -10.9268 -6.0479 24.4059 -7.7743 1.4935 0.0000 0.0000 0.0000 -85.5011 23.5309 29.4114 47.2840 -51.8396 -24.0215 -0.0000 0.0000 -33.1394 11.5118 -8.2577 -1.6755 -7.1250 0.0000 -0.0000 -11.0860 21.6119 6.3406 0.0000 0.0000 0.0000 83.0347 -29.7054 44.3621 -35.7575 45.3455 -15.3497 0.0000 0.0000 3.0520 -9.9485 -5.0966 0.8927 7.1250 -0.0000 -0.0000 13.8048 -34.8776 3.5165
6.6719 15.8303 37.9725 -179.6660 -21.2707 -166.1000 0.0000 0.0000 0.0000 -9.3814 -5.6952 -25.8204 8.1042 16.1954 52.9372 -0.3843 12.6093 2.1270 2.5694 -9.9631 -28.8572 0.0000 0.0000 0.0000 22.9000 11.4985 -15.3118 -1.6565 -8.1107 23.0507 0.5718 22.9527 -11.7031 -0.0072 0.5493 -1.5093 7.2047 3.4883 -7.6508 -1.9884 3.7347 -6.7262 -5.8783 1.3460 -2.1343 -33.0419 -3.9325 10.3035 42.7854 -10.9818 -6.5249 24.4930 -7.8417 1.3367 0.0000 0.0000 0.0000 -85.6235 24.0183 28.9527 49.5349 -52.8062 -25.8032 -0.0000 0.0000 -34.0669 11.6930 -8.4545 -1.7429 -7.1250 0.0000 -0.0000 -10.9452 21.4083 6.3086 0.0000 0.0000 0.0000 82.5230 -30.1591 44.9389 -36.3757 45.7699 -15.7911 0.0000 0.0000 2.7507 -9.8684 -5.0987 0.8857 7.1250 -0.0000 -0.0000 13.8699 -34.8758 3.5346
6.6670 15.8242 37.9565 -179.5700 -20.7820 -166.2260 0.0000 0.0000 0.0000 -9.2153 -5.9626 -26.1851 8.3989 16.4049 53.9869 -0.3479 12.3830 2.6615 2.3927 -9.6402 -27.8192 0.0000 0.0000 0.0000 22.9950 11.7644 -15.0156 -1.6532 -8.1029 23.0271 0.5661 22.9823 -11.7801 -0.0088 0.6070 -1.6679 7.3534 3.4760 -7.5235 -1.9825 3.7211 -6.7304 -5.9637 1.3309 -2.2043 -33.0835 -3.9365 10.6849 42.8377 -11.0324 -6.9824 24.5857 -7.9116 1.1721 0.0000 -0.0000 0.0000 -85.7500 24.4818 28.4903 51.7391 -53.6733 -27.5692 -0.0000 0.0000 -34.9781 11.9435 -8.6101 -1.8138 -7.1250 0.0000 -0.0000 -10.7578 21.2430 6.2377 0.0000 -0.0000 0.0000 82.0390 -30.5619 45.4511 -36.8755 46.1058 -16.1502 0.0000 0.0000 2.4056 -9.7878 -5.1120 0.8806 7.1250 -0.0000 -0.0000 13.9376 -34.8849 3.5495
6.6623 15.8148 37.9417 -179.4570 -20.2929 -166.3690 0.0000 0.0000 0.0000 -9.0305 -6.2243 -26.5648 8.7045 16.6137 55.0623 -0.3064 11.9674 3.0162 2.2779 -9.4224 -27.1257 0.0000 0.0000 0.0000 23.1111 12.0688 -14.7189 -1.6576 -8.1132 23.0583 0.5442 22.9647 -11.9500 -0.0128 0.7307 -2.0081 7.4993 3.4559 -7.3764 -1.9594 3.7005 -6.7269 -6.0305 1.3133 -2.2797 -33.1172 -3.9350 11.0519 42.8873 -11.0755 -7.4199 24.6773 -7.9763 1.0110 0.0000 -0.0000 0.0000 -85.9154 24.8824 27.9995 53.8605 -54.4386 -29.2868 -0.0000 0.0000 -35.8417 12.2424 -8.7343 -1.8872 -7.1250 0.0000 -0.0000 -10.5377 21.1065 6.1388 0.0000 -0.0000 0.0000 81.5478 -30.8712 45.9268 -37.2498 46.3534 -16.4206 0.0000 0.0000 2.0221 -9.6935 -5.1347 0.8758 7.1250 -0.0000 -0.0000 14.0181 -34.9026 3.5649
6.6574 15.8026 37.9276 -179.3300 -19.7911 -166.5290 0.0000 0.0000 0.0000 -8.8348 -6.4754 -26.9428 9.0154 16.8176 56.1433 -0.2623 11.3680 3.2039 2.1810 -9.2333 -26.5278 0.0000 0.0000 0.0000 23.2406 12.4148 -14.4293 -1.6711 -8.1444 23.1535 0.5137 22.9358 -12.1810 -0.0187 0.8818 -2.4238 7.6432 3.4338 -7.2243 -1.9183 3.6805 -6.7016 -6.0767 1.2990 -2.3360 -33.1497 -3.9390 11.3870 42.9348 -11.1205 -7.8457 24.7652 -8.0387 0.8606 -0.0000 0.0000 0.0000 -86.1232 25.1942 27.4874 55.8576 -55.1011 -30.9182 -0.0000 0.0000 -36.6316 12.5674 -8.8440 -1.9630 -7.1250 0.0000 -0.0000 -10.3002 20.9828 6.0252 -0.0000 0.0000 0.0000 81.0509 -31.0670 46.3551 -37.4925 46.5121 -16.5964 0.0000 0.0000 1.6369 -9.5730 -5.1478 0.8669 7.1250 -0.0000 -0.0000 14.1181 -34.9095 3.5892
6.6523 15.7878 37.9140 -179.1820 -19.2792 -166.7150 0.0000 0.0000 0.0000 -8.6185 -6.7182 -27.3087 9.3271 17.0137 57.2146 -0.2141 10.5180 3.2217 2.1189 -9.1094 -26.1380 0.0000 0.0000 0.0000 23.3940 12.8177 -14.1425 -1.6952 -8.2000 23.3231 0.4774 22.8873 -12.4410 -0.0244 1.0092 -2.7741 7.7858 3.4079 -7.0525 -1.8580 3.6593 -6.6638 -6.1025 1.2858 -2.3916 -33.1732 -3.9428 11.7013 42.9748 -11.1597 -8.2580 24.8447 -8.0954 0.7137 -0.0000 0.0000 0.0000 -86.3662 25.4340 26.9605 57.7100 -55.6682 -32.4427 -0.0000 0.0000 -37.3442 12.9153 -8.9447 -2.0419 -7.1250 0.0000 -0.0000 -10.0471 20.8666 5.8993 -0.0000 0.0000 0.0000 80.5539 -31.1628 46.7386 -37.6058 46.5857 -16.6787 0.0000 0.0000 1.2651 -9.3965 -5.1676 0.8539 7.1250 -0.0000 -0.0000 14.2644 -34.9202 3.6245
6.6467 15.7705 37.9001 -179.0170 -18.7451 -166.9250 0.0000 0.0000 0.0000 -8.3938 -6.9458 -27.6521 9.6338 17.1987 58.2573 -0.1634 9.3724 3.0446 2.0998 -9.0709 -26.0174 0.0000 0.0000 0.0000 23.5631 13.2803 -13.8645 -1.7315 -8.2828 23.5764 0.4398 22.8436 -12.7134 -0.0278 1.0755 -2.9567 7.9268 3.3889 -6.8738 -1.7872 3.6499 -6.6127 -6.1154 1.2804 -2.4359 -33.1806 -3.9457 12.0275 43.0124 -11.1977 -8.6796 24.9209 -8.1523 0.5597 -0.0000 0.0000 0.0000 -86.6189 25.6086 26.4475 59.3998 -56.1479 -33.8422 -0.0000 0.0000 -37.9746 13.2798 -9.0376 -2.1232 -7.1250 0.0000 -0.0000 -9.7829 20.7567 5.7641 -0.0000 0.0000 0.0000 80.0805 -31.1693 47.0576 -37.5915 46.5764 -16.6683 0.0000 0.0000 0.9393 -9.1444 -5.2125 0.8378 7.1250 -0.0000 -0.0000 14.4768 -34.9517 3.6700
6.6410 15.7509 37.8862 -178.8320 -18.2034 -167.1580 0.0000 0.0000 0.0000 -8.1540 -7.1692 -27.9775 9.9329 17.3719 59.2638 -0.1128 7.9402 2.7145 2.1370 -9.1458 -26.2524 0.0000 0.0000 0.0000 23.7570 13.8029 -13.6018 -1.7816 -8.3956 23.9221 0.4009 22.7891 -12.9853 -0.0277 1.0747 -2.9544 8.0698 3.3660 -6.6749 -1.7037 3.6384 -6.5578 -6.1171 1.2741 -2.4887 -33.1832 -3.9436 12.3495 43.0482 -11.2336 -9.0784 24.9969 -8.2078 0.4101 0.0000 0.0000 0.0000 -86.8851 25.7357 25.9357 60.9227 -56.5508 -35.1099 -0.0000 0.0000 -38.5168 13.6623 -9.1227 -2.2071 -7.1250 0.0000 -0.0000 -9.5065 20.6530 5.6192 0.0000 0.0000 0.0000 79.6230 -31.0910 47.3353 -37.4521 46.4858 -16.5671 0.0000 0.0000 0.6775 -8.8083 -5.2648 0.8146 7.1250 -0.0000 -0.0000 14.7583 -34.9861 3.7327
